<?xml version="1.0" encoding="UTF-8"?>
<svg version="1.1" xmlns="http://www.w3.org/2000/svg" width="604" height="604">
<path d="M0 0 C5.16755269 2.65809817 8.14863739 6.14991332 11.05859375 11.125 C11.05859375 11.785 11.05859375 12.445 11.05859375 13.125 C12.92912772 12.99465506 12.92912772 12.99465506 15.05859375 12.125 C15.63609375 11.3825 16.21359375 10.64 16.80859375 9.875 C21.38442806 4.28231362 27.11104822 1.77742891 34.05859375 0.125 C44.84264112 -0.87762494 53.94028037 0.05465801 62.74609375 6.625 C66.44351341 10.05770832 68.50748558 14.27388923 70.921875 18.65234375 C73.33740269 22.7750507 76.3295523 26.38976966 79.37109375 30.0625 C80.22223755 31.09153442 80.22223755 31.09153442 81.09057617 32.14135742 C82.2203668 33.50339624 83.35128713 34.86449887 84.48339844 36.22460938 C91.26318143 44.40406238 97.42233928 52.95352819 103.37109375 61.75 C104.25172485 63.03813599 104.25172485 63.03813599 105.15014648 64.35229492 C112.20075413 74.91964617 117.29848503 85.187004 116.05859375 98.125 C114.28425778 106.8045543 110.98276457 113.50408547 104.05859375 119.125 C100.66788919 121.34878558 97.15241424 123.34572583 93.61474609 125.32470703 C88.93629737 127.95360762 84.67246587 130.75831923 80.49609375 134.125 C74.57024569 138.85227829 68.35039228 142.85743813 61.8828125 146.80078125 C61.26196777 147.18057129 60.64112305 147.56036133 60.00146484 147.95166016 C58.63278102 148.77823649 57.25449715 149.58901916 55.86962891 150.38818359 C55.15468262 150.8105127 54.43973633 151.2328418 53.703125 151.66796875 C53.0531958 152.04332764 52.4032666 152.41868652 51.73364258 152.80541992 C49.13917561 154.84930477 48.25571984 156.99354659 47.69555664 160.20874023 C47.64133545 160.94294189 47.58711426 161.67714355 47.53125 162.43359375 C47.42925293 163.66855591 47.42925293 163.66855591 47.32519531 164.9284668 C47.2578418 165.79769775 47.19048828 166.66692871 47.12109375 167.5625 C45.67237743 183.45400189 43.42038052 195.25000765 30.8359375 205.94140625 C26.7042233 209.18982852 22.47387276 212.29905012 18.19946289 215.35693359 C17.26734985 216.02523193 17.26734985 216.02523193 16.31640625 216.70703125 C15.76098145 217.10124268 15.20555664 217.4954541 14.63330078 217.90161133 C12.98761194 219.11835643 12.98761194 219.11835643 11.47998047 220.77612305 C10.05859375 222.125 10.05859375 222.125 8.05859375 222.125 C6.46183405 226.95594961 7.9495222 230.5501441 9.640625 235.109375 C12.94698756 244.50764578 15.56285998 254.01404918 18.04614258 263.65820312 C18.74960005 266.38860937 19.46294678 269.11629028 20.17773438 271.84375 C27.19512737 298.76340347 27.19512737 298.76340347 28.05859375 309.125 C28.15527344 310.25421875 28.15527344 310.25421875 28.25390625 311.40625 C28.87406095 324.47084242 22.20009996 337.01214612 14.4765625 347.21484375 C6.97715843 355.28382282 -3.19861323 361.30319446 -12.81640625 366.5 C-19.11901595 369.91876156 -24.76934588 373.80112472 -30.43774414 378.18212891 C-37.32185607 383.48733136 -44.45339416 388.41276815 -51.60961914 393.34204102 C-57.26795724 397.24487266 -62.84302606 401.22999502 -68.3425293 405.35449219 C-70.94140625 407.125 -70.94140625 407.125 -74.19848633 408.71972656 C-77.07771477 409.8477712 -77.07771477 409.8477712 -78.00390625 412.3125 C-77.93252059 415.52485476 -77.03992143 418.03106188 -75.8203125 420.984375 C-74.98751645 423.01269604 -74.29444812 425.03671292 -73.62890625 427.125 C-69.59000558 439.33767044 -64.7122971 451.15895795 -59.53353882 462.92306519 C-53.46150778 476.74766067 -48.02081952 490.54649299 -43.66479492 505.02319336 C-42.98776715 507.15909263 -42.98776715 507.15909263 -41.87817383 509.16577148 C-39.02743548 515.12802722 -39.87345088 525.05070202 -42.00390625 531.18359375 C-43.4652538 533.7290388 -45.04097868 535.89065782 -46.94140625 538.125 C-47.46347656 538.78242187 -47.98554688 539.43984375 -48.5234375 540.1171875 C-52.53358475 544.62520856 -57.28499056 547.76202423 -62.3359375 550.9609375 C-63.86432882 551.93960236 -65.39221649 552.91905407 -66.91967773 553.89916992 C-67.7328244 554.42022308 -68.54597107 554.94127625 -69.38375854 555.4781189 C-76.76509286 560.23099396 -84.08591247 565.07787568 -91.41845703 569.90551758 C-93.36038612 571.18339526 -95.30310312 572.46007634 -97.24658203 573.7355957 C-111.23071947 582.90062382 -111.23071947 582.90062382 -124.84667969 592.59741211 C-127.60463183 594.60865996 -130.42202357 596.35737769 -133.37890625 598.0625 C-134.83103516 598.91134766 -134.83103516 598.91134766 -136.3125 599.77734375 C-143.34059857 603.38015803 -151.61666002 602.97385141 -159.12890625 601 C-165.48479339 598.82747896 -170.94799112 595.54683209 -174.19140625 589.5 C-175.53509068 586.4164165 -176.55240969 583.26728728 -177.56640625 580.0625 C-179.82464936 573.03294945 -182.82062901 566.36970959 -185.80395508 559.62207031 C-189.76121912 550.63660899 -193.46584624 541.55862709 -197.09790039 532.43725586 C-199.01122986 527.67350726 -200.94725106 523.0052483 -203.33203125 518.45703125 C-206.78124602 511.72561917 -209.3234074 504.62576633 -211.97045898 497.55126953 C-212.86755459 495.15531788 -213.77388899 492.76302547 -214.68164062 490.37109375 C-219.90179642 476.55048383 -225.08351811 462.65711088 -228.44140625 448.25 C-231.47223075 436.11299351 -235.84769117 424.86986559 -246.69140625 417.875 C-251.37003281 415.23808177 -255.58443319 413.60777747 -260.94140625 413.125 C-261.67488281 413.05796875 -262.40835938 412.9909375 -263.1640625 412.921875 C-271.50436662 412.97756985 -278.16011587 417.8730475 -285.07617188 422.02539062 C-287.56576879 423.4930797 -290.10998843 424.82665376 -292.69140625 426.125 C-293.42875 426.49625 -294.16609375 426.8675 -294.92578125 427.25 C-301.86786057 430.26361583 -309.90883846 430.15340034 -317.00390625 427.6875 C-329.15525287 422.08065818 -335.58345676 411.28509412 -342.48632812 400.40429688 C-344.66945882 396.98454719 -346.93045458 393.61856296 -349.19140625 390.25 C-349.99640381 389.0405709 -350.80109796 387.83093979 -351.60546875 386.62109375 C-353.17113464 384.27128693 -354.7502201 381.93131751 -356.33984375 379.59765625 C-357.07460938 378.51355469 -357.809375 377.42945313 -358.56640625 376.3125 C-359.21867187 375.35730469 -359.8709375 374.40210938 -360.54296875 373.41796875 C-361.94140625 371.125 -361.94140625 371.125 -361.94140625 369.125 C-362.60140625 369.125 -363.26140625 369.125 -363.94140625 369.125 C-365.37713716 367.21575107 -366.69803862 365.30805507 -368.00390625 363.3125 C-373.06866694 355.80137592 -378.51291158 348.68894375 -384.77734375 342.125 C-393.70238676 332.77005025 -399.67244636 323.5032912 -400.31640625 310.3125 C-400.09040056 301.11689337 -396.24207678 292.74728248 -389.94140625 286.125 C-385.9069812 282.46298342 -381.49966488 279.83770057 -376.69140625 277.3125 C-372.63732981 275.16915631 -369.06524098 272.80897804 -365.44140625 270 C-360.77541437 266.41077548 -356.01161194 263.21495552 -351.00390625 260.125 C-340.93490953 253.88269026 -331.12896975 247.25953568 -321.31640625 240.625 C-320.53661407 240.09874023 -319.7568219 239.57248047 -318.95339966 239.03027344 C-310.77673783 233.50938141 -302.64109907 227.94007029 -294.59765625 222.2265625 C-284.86622856 215.31778021 -274.9696988 208.65898764 -265.06640625 202 C-263.16080281 200.71627328 -261.25528616 199.43241772 -259.34985352 198.1484375 C-251.17276055 192.64138104 -242.98980257 187.1436452 -234.7734375 181.6953125 C-234.16876648 181.29400116 -233.56409546 180.89268982 -232.94110107 180.47921753 C-230.27760894 178.71226575 -227.61158349 176.94943481 -224.93994141 175.19482422 C-219.03704967 171.29095603 -213.29136123 167.21226505 -207.578125 163.0390625 C-197.22730621 155.49802774 -186.5382807 148.49836292 -175.81640625 141.5 C-172.04138998 139.03105035 -168.26800596 136.55962667 -164.49609375 134.0859375 C-163.59044174 133.49200699 -162.68478973 132.89807648 -161.75169373 132.28614807 C-148.16700113 123.35438127 -134.73962429 114.14019622 -121.68310547 104.44873047 C-113.97457989 98.75809772 -106.02976256 93.46140884 -98.03918457 88.17779541 C-85.73382851 80.03916484 -73.51215595 71.81134996 -61.44775391 63.31860352 C-56.08442406 59.56087874 -50.6487177 55.98585184 -45.06640625 52.5625 C-36.36041667 47.63338253 -36.36041667 47.63338253 -28.94140625 41.125 C-28.43473818 37.48514317 -29.12906921 35.17586081 -30.87890625 32 C-34.34510258 25.61424762 -35.34577871 18.89986635 -33.2578125 11.80078125 C-27.2389462 -1.31085696 -12.9295407 -3.84623787 0 0 Z M-24.7890625 111.640625 C-27.76239378 114.01782938 -30.85170337 116.17623002 -34.00390625 118.3125 C-37.72951139 120.83812481 -41.3760362 123.43124047 -44.94140625 126.1796875 C-57.92623156 136.17549903 -71.433796 145.22700231 -85.15454102 154.17602539 C-85.9320723 154.6867157 -86.70960358 155.19740601 -87.51069641 155.72357178 C-88.99108465 156.69579689 -90.47525686 157.66228996 -91.96354675 158.62237549 C-93.65815818 159.7380264 -95.30567949 160.92467387 -96.94140625 162.125 C-96.94140625 162.785 -96.94140625 163.445 -96.94140625 164.125 C-97.64007813 164.3725 -98.33875 164.62 -99.05859375 164.875 C-102.36376327 166.30813583 -105.0860775 168.09584 -108.06640625 170.125 C-109.40198124 171.02918153 -110.73795245 171.93277796 -112.07421875 172.8359375 C-112.83250977 173.34995117 -113.59080078 173.86396484 -114.37207031 174.39355469 C-117.2789059 176.35243705 -120.19894177 178.2906035 -123.12109375 180.2265625 C-137.86718081 189.99914846 -152.46193713 199.95976413 -166.94140625 210.125 C-169.44627365 211.87923258 -171.9517002 213.63262932 -174.45922852 215.38305664 C-176.11793008 216.54710067 -177.77077574 217.71953274 -179.41772461 218.90014648 C-185.28465274 223.08372686 -191.32068527 226.78755413 -197.56640625 230.375 C-211.04090439 238.23625471 -223.60350707 247.11480723 -236.21386719 256.27587891 C-242.53746649 260.86206041 -248.95170182 265.30388139 -255.40625 269.703125 C-258.30226293 271.67820122 -261.15676879 273.70493916 -264.00390625 275.75 C-267.90682889 278.49963832 -271.95551708 280.9531707 -276.06640625 283.375 C-287.68685047 290.23611703 -298.74641215 297.98625454 -309.44140625 306.2109375 C-310.91298003 307.33761118 -312.40581235 308.43883694 -313.94140625 309.4765625 C-317.07576414 311.69170966 -318.45413639 313.77223952 -319.50390625 317.375 C-320.3372236 322.47694294 -319.32088207 326.57755733 -316.94140625 331.125 C-314.81179989 333.74605398 -313.21377251 335.55462892 -310.12890625 336.9375 C-309.40703125 336.999375 -308.68515625 337.06125 -307.94140625 337.125 C-306.14703125 337.2796875 -306.14703125 337.2796875 -304.31640625 337.4375 C-295.26938329 337.22130276 -288.47166575 332.29966857 -281.44213867 327.09643555 C-277.46864888 324.16662724 -273.40602298 321.53180619 -269.12890625 319.0625 C-251.3115447 308.66704074 -234.55044541 296.3321245 -217.94140625 284.125 C-217.26368164 283.62742187 -216.58595703 283.12984375 -215.88769531 282.6171875 C-214.54993509 281.6349205 -213.21228565 280.65250262 -211.87475586 279.66992188 C-197.79207365 269.32709074 -183.29853083 259.73165137 -168.5703125 250.33203125 C-157.47455247 243.23590565 -146.68076665 235.74817041 -135.94140625 228.125 C-135.25852539 227.6407959 -134.57564453 227.1565918 -133.87207031 226.65771484 C-126.76682182 221.62319931 -126.76682182 221.62319931 -119.73583984 216.48608398 C-111.74377797 210.58172882 -103.49437624 205.0941997 -95.21228027 199.60784912 C-90.88890751 196.74315147 -86.57151967 193.86946152 -82.25390625 190.99609375 C-81.38513855 190.41809021 -80.51637085 189.84008667 -79.62127686 189.24456787 C-71.94545139 184.13459195 -64.28990948 178.99511928 -56.6529541 173.82723999 C-55.3669081 172.95706408 -54.08038486 172.08759298 -52.79333496 171.21890259 C-46.88630731 167.23078753 -41.01658831 163.21149981 -35.2734375 158.98828125 C-29.94591479 155.07981245 -24.44346695 151.49682225 -18.87890625 147.9375 C2.11048753 134.87189742 2.11048753 134.87189742 21.05859375 119.125 C21.70824036 111.79148921 21.44352653 106.3007148 16.6875 100.43359375 C13.48580934 97.12441227 10.66921262 95.63421824 6.05859375 95.25 C-5.66739045 95.95677165 -15.96270724 104.56102677 -24.7890625 111.640625 Z M-37.7890625 256.01171875 C-38.78744141 256.62080078 -39.78582031 257.22988281 -40.81445312 257.85742188 C-41.86697266 258.50259766 -42.91949219 259.14777344 -44.00390625 259.8125 C-45.02935547 260.43833984 -46.05480469 261.06417969 -47.11132812 261.70898438 C-49.12341068 262.93837583 -51.13339541 264.17120827 -53.14111328 265.40771484 C-54.91081106 266.49298548 -56.68707573 267.56768281 -58.47216797 268.62744141 C-60.32762553 269.74104311 -62.14052928 270.92513599 -63.94140625 272.125 C-63.94140625 272.785 -63.94140625 273.445 -63.94140625 274.125 C-64.66021973 274.39344727 -65.3790332 274.66189453 -66.11962891 274.93847656 C-68.95544996 276.13090521 -71.45856864 277.51868704 -74.08984375 279.109375 C-75.085 279.70854736 -76.08015625 280.30771973 -77.10546875 280.92504883 C-78.16507812 281.56853271 -79.2246875 282.2120166 -80.31640625 282.875 C-81.40953125 283.53588623 -82.50265625 284.19677246 -83.62890625 284.87768555 C-85.91469918 286.26049175 -88.1995661 287.64472993 -90.48339844 289.03076172 C-93.87144142 291.08528951 -97.26929959 293.12325183 -100.66796875 295.16015625 C-102.75929302 296.41897443 -104.85044595 297.67807733 -106.94140625 298.9375 C-107.93188965 299.52950195 -108.92237305 300.12150391 -109.94287109 300.73144531 C-110.8498877 301.28026367 -111.7569043 301.82908203 -112.69140625 302.39453125 C-113.490625 302.87510986 -114.28984375 303.35568848 -115.11328125 303.85083008 C-117.08105735 305.00591403 -117.08105735 305.00591403 -117.94140625 307.125 C-117.34239972 309.54402829 -116.67236021 311.8686702 -115.9140625 314.23828125 C-115.69004761 314.95634445 -115.46603271 315.67440765 -115.23522949 316.41423035 C-114.50028523 318.75821269 -113.75319302 321.09806583 -113.00390625 323.4375 C-112.75252899 324.22833984 -112.50115173 325.01917969 -112.24215698 325.83398438 C-109.16902774 335.49081204 -106.03558298 345.12436534 -102.50390625 354.625 C-102.19912354 355.46458252 -101.89434082 356.30416504 -101.58032227 357.16918945 C-100.37491017 360.30126573 -99.32534591 362.6899225 -97.09375 365.21875 C-93.88592867 366.56941161 -92.26470356 366.16579081 -88.94140625 365.125 C-86.2249642 363.59751739 -83.75441185 361.79293148 -81.25390625 359.9375 C-80.52204102 359.40793701 -79.79017578 358.87837402 -79.03613281 358.33276367 C-76.66184664 356.60927285 -74.30053002 354.86917725 -71.94140625 353.125 C-70.31512013 351.92706166 -68.68881798 350.72914509 -67.0625 349.53125 C-64.62976161 347.7374765 -62.19802999 345.94240539 -59.76904297 344.14355469 C-53.25346591 339.32565116 -46.62942863 334.69957071 -39.94140625 330.125 C-37.38998435 328.33789696 -34.84314345 326.54443388 -32.296875 324.75 C-29.19983163 322.6133996 -26.03519979 320.58697161 -22.8515625 318.58203125 C-20.61995214 316.87980085 -19.30293384 315.59623659 -17.94140625 313.125 C-17.37829697 307.54818279 -18.6132558 302.79892357 -20.12890625 297.5 C-20.59222785 295.81836338 -21.0530748 294.1360434 -21.51171875 292.453125 C-21.74922852 291.58236328 -21.98673828 290.71160156 -22.23144531 289.81445312 C-23.41901481 285.31573731 -24.4549164 280.78263674 -25.50390625 276.25 C-27.32937383 268.42174582 -29.4064423 260.75821548 -31.94140625 253.125 C-34.01336131 253.125 -36.10081742 254.97970531 -37.7890625 256.01171875 Z " fill="#764A81" transform="translate(444.94140625,0.875)"/>
<path d="M0 0 C0.66 0.33 1.32 0.66 2 1 C1.04882866 2.1725131 0.08882991 3.33787015 -0.875 4.5 C-1.40867187 5.1496875 -1.94234375 5.799375 -2.4921875 6.46875 C-2.98976562 6.9740625 -3.48734375 7.479375 -4 8 C-4.66 8 -5.32 8 -6 8 C-4.55746343 4.63408134 -2.66735273 2.48952921 0 0 Z " fill="#A98DB0" transform="translate(58,284)"/>
</svg>
